<svg width="16" height="16" viewBox="0 0 16 16" fill="none" xmlns="http://www.w3.org/2000/svg">
<g id="favicon">
<rect width="16" height="16" rx="2" fill="#003D96"/>
<path id="Vector" d="M2.49658 10.3169C3.40454 12.4536 5.52916 13.9548 7.9988 13.9548C7.08479 11.818 4.96622 10.3169 2.49658 10.3169Z" fill="#00BE64"/>
<path id="Vector_2" d="M12.478 6.4853C12.478 8.961 10.4684 10.9706 7.99268 10.9706C5.51698 10.9706 3.51343 8.961 3.51343 6.4853C3.51343 4.00961 5.52304 2 7.99873 2C10.4744 2 12.478 4.00961 12.478 6.4853Z" fill="#FFB900"/>
<path id="Vector_3" d="M7.99878 13.9547C9.81469 13.9547 11.3764 12.8772 12.0785 11.3277C10.2626 11.3216 8.70093 12.4051 7.99878 13.9547Z" fill="#00BE64"/>
<path id="Vector_4" d="M10.2384 6.48526C10.2384 7.72008 9.2336 8.72488 7.99878 8.72488C6.76396 8.72488 5.75916 7.72008 5.75916 6.48526C5.75916 5.25044 6.76396 4.24563 7.99878 4.24563C9.2336 4.23958 10.2384 5.24438 10.2384 6.48526Z" fill="#003D96"/>
</g>
</svg>
