<svg width="32" height="36" viewBox="0 0 32 36" fill="none" xmlns="http://www.w3.org/2000/svg">
<g id="Frame" clip-path="url(#clip0_646_8666)">
<path id="Vector" d="M0.90332 24.998C3.63236 31.4204 10.0183 35.9324 17.4413 35.9324C14.6941 29.5101 8.3263 24.998 0.90332 24.998Z" fill="#00BE64"/>
<path id="Vector_2" d="M30.9037 13.4814C30.9037 20.9226 24.8634 26.9629 17.4222 26.9629C9.98106 26.9629 3.95898 20.9226 3.95898 13.4814C3.95898 6.04027 9.99925 0 17.4404 0C24.8816 0 30.9037 6.04027 30.9037 13.4814Z" fill="#FFB900"/>
<path id="Vector_3" d="M17.4404 35.9322C22.8985 35.9322 27.5924 32.6938 29.7029 28.0362C24.2448 28.018 19.5509 31.2747 17.4404 35.9322Z" fill="#00BE64"/>
<path id="Vector_4" d="M24.1722 13.4817C24.1722 17.1932 21.1521 20.2133 17.4406 20.2133C13.7291 20.2133 10.709 17.1932 10.709 13.4817C10.709 9.77022 13.7291 6.75008 17.4406 6.75008C21.1521 6.73189 24.1722 9.75202 24.1722 13.4817Z" fill="#003D96"/>
</g>
<defs>
<clipPath id="clip0_646_8666">
<rect width="30.1711" height="35.9996" fill="white" transform="translate(0.885742)"/>
</clipPath>
</defs>
</svg>
