<svg width="159" height="36" viewBox="0 0 159 36" fill="none" xmlns="http://www.w3.org/2000/svg">
<g id="Logo">
<path id="Vector" d="M0.0644531 25.042C2.81251 31.4656 9.20176 35.9999 16.6215 35.9999C13.8735 29.5419 7.48422 25.042 0.0644531 25.042Z" fill="#00BE64"/>
<path id="Vector_2" d="M30.1208 13.4998C30.1208 20.954 24.0751 26.9997 16.6209 26.9997C9.16682 26.9997 3.12109 20.954 3.12109 13.4998C3.12109 6.04573 9.16682 0 16.6209 0C24.0751 0 30.1208 6.04573 30.1208 13.4998Z" fill="#FFB900"/>
<path id="Vector_3" d="M16.6211 35.9996C22.0829 35.9996 26.7889 32.7363 28.9187 28.0989C23.4569 28.0646 18.7508 31.3279 16.6211 35.9996Z" fill="#00BE64"/>
<path id="Vector_4" d="M23.3893 13.4996C23.3893 17.2439 20.3665 20.2324 16.6566 20.2324C12.9467 20.2324 9.92383 17.2095 9.92383 13.4996C9.92383 9.75541 12.9467 6.76689 16.6566 6.76689C20.3665 6.73254 23.3893 9.75541 23.3893 13.4996Z" fill="#003D96"/>
<path id="Vector_5" d="M78.4523 20.4038C78.4523 18.7207 76.7691 17.9649 74.8798 17.9649C71.9944 17.9649 69.5211 19.1672 68.7654 22.2931C74.605 23.9763 78.4523 22.7397 78.4523 20.4038ZM68.628 25.9C69.2463 29.6442 72.2004 30.8465 75.189 30.8465C77.1813 30.8465 79.2767 30.0564 80.5477 28.8885L84.0171 32.3923C81.9217 34.6938 79.0362 35.9647 75.0859 35.9647C69.5554 35.9647 62.857 32.7014 62.857 24.4229C62.857 16.1444 69.2806 12.881 74.7424 12.881C81.6469 12.881 84.5324 16.1444 84.5324 19.7855C84.5667 25.7282 77.0096 28.4763 68.628 25.9ZM41.4565 13.4993L41.2848 21.7092C41.2504 25.0412 41.113 26.69 40.6321 28.5793C40.1855 30.3999 39.3611 30.8808 38.0214 30.8808C37.5749 30.8808 37.1627 30.8465 36.8535 30.7091V35.3808C37.3001 35.6212 38.0214 35.7586 38.9833 35.7586C42.968 35.6556 44.8916 33.7663 45.8534 30.3999C46.5404 27.9954 46.6435 26.1404 46.7809 23.3924L46.9183 18.9611H53.9258V35.3808H59.5594V13.4993H41.4565ZM150.108 24.4229C150.108 22.6366 149.524 21.1252 148.356 19.9916C147.223 18.8237 145.78 18.2397 144.028 18.2397C142.276 18.2397 140.833 18.8237 139.7 19.9916C138.566 21.1252 137.982 22.6023 137.982 24.4229C137.982 26.2091 138.566 27.7206 139.7 28.8885C140.833 30.0221 142.276 30.606 144.028 30.606C145.78 30.606 147.223 30.0221 148.356 28.8885C149.524 27.7206 150.108 26.2435 150.108 24.4229ZM158.764 30.606V35.2434C157.803 35.7243 156.6 35.9647 155.192 35.9647C152.272 35.9647 150.795 34.6938 150.177 32.6327L150.074 32.7701C148.356 34.8999 146.02 35.9647 142.929 35.9647C140.009 35.9647 137.501 34.8655 135.406 32.6327C133.345 30.3999 132.314 27.6519 132.314 24.3885C132.314 21.1596 133.379 18.4459 135.406 16.2131C137.501 13.9803 140.009 12.8467 142.929 12.8467C145.848 12.8467 148.15 13.8085 149.833 15.7665V13.465H155.467V28.9572C155.467 30.2969 156.085 30.9495 157.287 30.9495C157.871 30.9839 158.352 30.8465 158.764 30.606ZM111.773 18.9268H118.814V35.3808H124.448V18.9268H131.387V13.4993H111.773V18.9268ZM103.46 13.4993H109.093V35.3808H103.46V26.8618H93.601V35.3808H87.9674V13.4993H93.601V21.5718H103.46V13.4993Z" fill="white"/>
</g>
</svg>
